<?xml version="1.0" encoding="utf-8"?>
<!-- Generator: Adobe Illustrator 25.3.1, SVG Export Plug-In . SVG Version: 6.00 Build 0)  -->
<svg version="1.1" id="Layer_1" xmlns="http://www.w3.org/2000/svg" xmlns:xlink="http://www.w3.org/1999/xlink" x="0px" y="0px"
	 viewBox="0 0 375.61 491.81" style="enable-background:new 0 0 375.61 491.81;" xml:space="preserve">
<style type="text/css">
	.st0{fill:#050505;}
	.st1{fill:url(#SVGID_1_);}
	.st2{fill:url(#SVGID_2_);}
	.st3{fill:#4F7AE9;}
</style>
<rect x="-24.09" y="-7.77" class="st0" width="435.06" height="522.89"/>
<g>
	<linearGradient id="SVGID_1_" gradientUnits="userSpaceOnUse" x1="0.5004" y1="200" x2="185.8417" y2="200">
		<stop  offset="0" style="stop-color:#C100E9"/>
		<stop  offset="1" style="stop-color:#4F7AE9"/>
	</linearGradient>
	<path class="st1" d="M185.84,400H125.6c-0.05,0-0.1-0.05-0.1-0.1c0,0.05-0.05,0.1-0.1,0.1H60.84C27.51,400,0.5,372.83,0.5,339.32
		V60.68C0.5,27.17,27.51,0,60.84,0h64.56c0.05,0,0.1,0.05,0.1,0.1c0-0.05,0.05-0.1,0.1-0.1h60.24c-33.33,0-60.34,27.17-60.34,60.68
		v278.63C125.5,372.83,152.51,400,185.84,400z"/>
	<linearGradient id="SVGID_2_" gradientUnits="userSpaceOnUse" x1="125.4996" y1="200" x2="375.1138" y2="200">
		<stop  offset="0" style="stop-color:#4F7AE9"/>
		<stop  offset="1" style="stop-color:#C100E9"/>
	</linearGradient>
	<path class="st2" d="M375.03,270.21c0.37,10.06-0.47,19.86-2.39,29.29c-11.5,56.59-61.7,99.51-121.72,100.48
		c-0.02-0.02-0.04-0.05-0.04-0.08c0,0.03-0.02,0.06-0.04,0.08c-0.67,0.01-1.33,0.02-2,0.02h-62.81c-33.43,0-60.53-27.17-60.53-60.68
		V300.1c0-0.06,0.05-0.1,0.1-0.1h123.39c0.43,0,0.85-0.01,1.27-0.03c13.86-0.67,24.82-12.26,23.79-26.29
		c-0.92-12.49-11.16-22.37-23.79-22.66c-0.19-0.01-0.38-0.02-0.58-0.02H125.6c-0.06,0-0.1-0.05-0.1-0.1V150.1
		c0-0.06,0.05-0.1,0.1-0.1h123.39c0.43,0,0.85-0.01,1.27-0.03c13.86-0.67,24.82-12.26,23.79-26.29
		c-0.92-12.49-11.16-22.37-23.79-22.66c-0.19-0.01-0.38-0.02-0.58-0.02H125.6c-0.06,0-0.1-0.05-0.1-0.1V60.68
		C125.5,27.17,152.6,0,186.03,0h62.81c0.67,0,1.33,0.02,2,0.03c0.02,0.02,0.04,0.04,0.04,0.07c0-0.03,0.02-0.05,0.04-0.07
		c60.02,0.97,110.22,43.88,121.72,100.47c1.91,9.43,2.76,19.24,2.39,29.29c-0.25,6.81-1.05,13.48-2.35,19.96
		c-3.7,18.56-11.48,35.65-22.37,50.25c-0.03,0.04-0.06,0.07-0.08,0.11c0.04-0.06,0.12-0.06,0.16,0
		c10.86,14.58,18.61,31.63,22.29,50.14C373.98,256.74,374.78,263.41,375.03,270.21z"/>
</g>
<path class="st3" d="M64.84,449h9.08c2.28,0,4.36-0.3,6.25-0.91c1.89-0.61,3.39-1.53,4.5-2.76c1.11-1.24,1.67-2.81,1.67-4.72
	c0-2.7-1.12-4.81-3.37-6.33c-2.25-1.52-5.26-2.27-9.04-2.27h-8.08v41h8.91c2.94,0,5.53-0.41,7.75-1.22c2.22-0.81,3.94-2,5.16-3.56
	c1.22-1.56,1.83-3.51,1.83-5.86c0-1.67-0.39-3.15-1.17-4.44c-0.78-1.29-1.86-2.37-3.25-3.25c-1.39-0.88-2.96-1.55-4.71-2
	c-1.75-0.45-3.62-0.68-5.62-0.68h-9.91v-2h10.04c2.41-0.13,4.76,0.14,7.05,0.66c2.3,0.53,4.35,1.32,6.17,2.37
	c1.82,1.05,3.28,2.39,4.37,4.02c1.09,1.62,1.64,3.53,1.64,5.73c0,3.16-0.84,5.77-2.52,7.82c-1.68,2.06-3.99,3.59-6.93,4.6
	c-2.94,1.01-6.31,1.51-10.12,1.8h-13.7v-48H73.7c3.53-0.33,6.56,0.1,9.11,0.97c2.55,0.87,4.52,2.16,5.92,3.88
	c1.4,1.72,2.1,3.86,2.1,6.42c0,2.33-0.71,4.29-2.14,5.87c-1.43,1.58-3.4,2.77-5.92,3.57c-2.52,0.8-5.43,1.2-8.73,1.3h-9.2V449z"/>
<path class="st3" d="M123.84,429v48h-5v-48H123.84z M121.84,428h29v4h-29V428z M121.84,448h27v4h-27V448z M121.84,473h29v4h-29V473z
	"/>
<path class="st3" d="M228.84,429v49.85l-45-41.9V477h-4v-49.85l45,42.03V429H228.84z"/>
<path class="st3" d="M254.23,487.39c1.34,0.57,2.83,0.86,4.45,0.86c2.3,0,4.07-0.62,5.33-1.85c1.26-1.24,1.89-3.32,1.83-6.25V429h4
	v51.83c0.51,1.88,0.26,3.5-0.25,4.87c-0.5,1.37-1.25,2.52-2.23,3.43c-0.98,0.91-2.21,1.59-3.7,2.02c-1.48,0.43-3.21,0.65-5.16,0.65
	c-1.46,0-2.87-0.21-4.24-0.62c-1.37-0.41-2.55-0.89-3.53-1.44s-1.69-1.05-2.14-1.51l2.44-2.88
	C251.82,486.14,252.88,486.81,254.23,487.39z"/>
<path class="st3" d="M310.84,429v48h-5v-48H310.84z"/>
<rect x="1001.47" y="307.02" style="fill:none;" width="0" height="2.04"/>
</svg>
