<?xml version="1.0" encoding="utf-8"?>
<!-- Generator: Adobe Illustrator 25.3.1, SVG Export Plug-In . SVG Version: 6.00 Build 0)  -->
<svg version="1.1" id="Layer_1" xmlns="http://www.w3.org/2000/svg" xmlns:xlink="http://www.w3.org/1999/xlink" x="0px" y="0px"
	 viewBox="0 0 375.6 491.8" style="enable-background:new 0 0 375.6 491.8;" xml:space="preserve">
<style type="text/css">
	.st0{fill:url(#SVGID_1_);}
	.st1{fill:#784EE9;}
	.st2{fill:none;}
	.st3{fill:url(#SVGID_2_);}
</style>
<linearGradient id="SVGID_1_" gradientUnits="userSpaceOnUse" x1="125.5" y1="294" x2="375.1153" y2="294" gradientTransform="matrix(1 0 0 -1 0 494)">
	<stop  offset="0" style="stop-color:#4F7AE9"/>
	<stop  offset="1" style="stop-color:#C100E9"/>
</linearGradient>
<path class="st0" d="M375,270.2c0.4,10.1-0.5,19.9-2.4,29.3C361.1,356.1,310.9,399,250.9,400c0,0,0,0,0-0.1c0,0,0,0.1,0,0.1
	c-0.7,0-1.3,0-2,0H186c-33.4,0-60.5-27.2-60.5-60.7v-39.2c0-0.1,0.1-0.1,0.1-0.1H249c0.4,0,0.9,0,1.3,0
	c13.9-0.7,24.8-12.3,23.8-26.3c-0.9-12.5-11.2-22.4-23.8-22.7c-0.2,0-0.4,0-0.6,0H125.6c-0.1,0-0.1-0.1-0.1-0.1V150.1
	c0-0.1,0.1-0.1,0.1-0.1H249c0.4,0,0.9,0,1.3,0c13.9-0.7,24.8-12.3,23.8-26.3c-0.9-12.5-11.2-22.4-23.8-22.7c-0.2,0-0.4,0-0.6,0
	H125.6c-0.1,0-0.1-0.1-0.1-0.1V60.7C125.5,27.2,152.6,0,186,0h62.8c0.7,0,1.3,0,2,0c0,0,0,0,0,0.1c0,0,0-0.1,0-0.1
	c60,1,110.2,43.9,121.7,100.5c1.9,9.4,2.8,19.2,2.4,29.3c-0.2,6.8-1,13.5-2.4,20c-3.7,18.6-11.5,35.6-22.4,50.2c0,0-0.1,0.1-0.1,0.1
	c0-0.1,0.1-0.1,0.2,0c10.9,14.6,18.6,31.6,22.3,50.1C374,256.7,374.8,263.4,375,270.2z"/>
<path class="st1" d="M64.8,449h9.1c2.3,0,4.4-0.3,6.2-0.9c1.9-0.6,3.4-1.5,4.5-2.8c1.1-1.2,1.7-2.8,1.7-4.7c0-2.7-1.1-4.8-3.4-6.3
	s-5.3-2.3-9-2.3h-8.1v41h8.9c2.9,0,5.5-0.4,7.8-1.2s3.9-2,5.2-3.6s1.8-3.5,1.8-5.9c0-1.7-0.4-3.1-1.2-4.4s-1.9-2.4-3.2-3.2
	s-3-1.5-4.7-2s-3.6-0.7-5.6-0.7h-9.9v-2h10c2.4-0.1,4.8,0.1,7.1,0.7c2.3,0.5,4.3,1.3,6.2,2.4s3.3,2.4,4.4,4c1.1,1.6,1.6,3.5,1.6,5.7
	c0,3.2-0.8,5.8-2.5,7.8c-1.7,2.1-4,3.6-6.9,4.6s-6.3,1.5-10.1,1.8H60.8v-48h12.9c3.5-0.3,6.6,0.1,9.1,1s4.5,2.2,5.9,3.9
	s2.1,3.9,2.1,6.4c0,2.3-0.7,4.3-2.1,5.9s-3.4,2.8-5.9,3.6c-2.5,0.8-5.4,1.2-8.7,1.3h-9.2V449z"/>
<path class="st1" d="M124,427.8v49h-5v-49H124z M122,427.8h29v4h-29V427.8z M122,447.8h27v4h-27V447.8z M122,472.8h29v4h-29V472.8z"
	/>
<path class="st1" d="M228.8,429v49.9l-45-41.9v40h-4v-49.9l45,42V429H228.8z"/>
<path class="st1" d="M254.2,487.4c1.3,0.6,2.8,0.9,4.4,0.9c2.3,0,4.1-0.6,5.3-1.9c1.3-1.2,1.9-3.3,1.8-6.2V429h4v51.8
	c0.5,1.9,0.3,3.5-0.2,4.9c-0.5,1.4-1.2,2.5-2.2,3.4s-2.2,1.6-3.7,2c-1.5,0.4-3.2,0.6-5.2,0.6c-1.5,0-2.9-0.2-4.2-0.6
	c-1.4-0.4-2.6-0.9-3.5-1.4s-1.7-1-2.1-1.5l2.4-2.9C251.8,486.1,252.9,486.8,254.2,487.4z"/>
<path class="st1" d="M310.8,429v48h-5v-48H310.8z"/>
<rect x="1001.5" y="307" class="st2" width="0" height="2"/>
<linearGradient id="SVGID_2_" gradientUnits="userSpaceOnUse" x1="2.25" y1="200" x2="187.59" y2="200">
	<stop  offset="0" style="stop-color:#C100E9"/>
	<stop  offset="1" style="stop-color:#4F7AE9"/>
</linearGradient>
<path class="st3" d="M127.2,339.3V60.7c0-33.5,27-60.7,60.3-60.7h-60.2c0,0-0.1,0-0.1,0.1c0,0,0-0.1-0.1-0.1H62.6
	C29.3,0,2.2,27.2,2.2,60.7v278.6c0,33.5,27,60.7,60.3,60.7h64.6c0,0,0.1-0.1,0.1-0.1c0,0.1,0,0.1,0.1,0.1h60.2
	C154.3,400,127.2,372.8,127.2,339.3z"/>
</svg>
