<?xml version="1.0" encoding="utf-8"?>
<!-- Generator: Adobe Illustrator 25.4.1, SVG Export Plug-In . SVG Version: 6.00 Build 0)  -->
<svg version="1.1" id="Layer_1" xmlns="http://www.w3.org/2000/svg" xmlns:xlink="http://www.w3.org/1999/xlink" x="0px" y="0px"
	 viewBox="0 0 37.3 53.2" style="enable-background:new 0 0 37.3 53.2;" xml:space="preserve">
<style type="text/css">
	.st0{fill:url(#SVGID_1_);}
	.st1{fill:url(#SVGID_00000137824318944898068360000015039938820768485787_);}
	
		.st2{fill:url(#SVGID_00000174567364213427488940000005477641978596247944_);stroke:#231F20;stroke-width:0.104;stroke-miterlimit:10;}
	
		.st3{fill:url(#SVGID_00000103972920684881810970000006964360180794312375_);stroke:#231F20;stroke-width:0.104;stroke-miterlimit:10;}
	.st4{fill:url(#SVGID_00000065763163943959778740000011830667756148406956_);}
	.st5{fill:url(#SVGID_00000018218813121053833720000013827808537013035949_);}
</style>
<g>
	
		<linearGradient id="SVGID_1_" gradientUnits="userSpaceOnUse" x1="8.8325" y1="31.3355" x2="37.24" y2="31.3355" gradientTransform="matrix(1 0 0 -1 0 68)">
		<stop  offset="0.429" style="stop-color:#BB5275"/>
		<stop  offset="1" style="stop-color:#F6BB96"/>
	</linearGradient>
	<path class="st0" d="M37.2,51.7c0,1.3-1.6,2-2.6,1.1L15.3,33.5l-6-6c-0.5-0.5-0.5-1.4,0-1.9l5.1-5.1c0.5-0.5,1.4-0.5,1.9,0L36.8,41
		c0.2,0.2,0.4,0.6,0.4,1L37.2,51.7z"/>
	<g>
		
			<linearGradient id="SVGID_00000005966152325980573720000011561783391441434040_" gradientUnits="userSpaceOnUse" x1="9.8223" y1="51.6195" x2="38.2285" y2="51.6922" gradientTransform="matrix(1 2.558343e-03 2.558343e-03 -1 -1.0373 69.1217)">
			<stop  offset="0" style="stop-color:#DD5E89"/>
			<stop  offset="1" style="stop-color:#F6BB96"/>
		</linearGradient>
		<path style="fill:url(#SVGID_00000005966152325980573720000011561783391441434040_);" d="M37.3,1.7l0,9.2c0,0.4-0.2,0.9-0.5,1.2
			L22.6,26c-0.1,0.1-0.3,0.2-0.4,0.4c-0.2,0.2-0.4,0.4-0.6,0.6c-1.5,1.7-2.4,3.9-2.4,6.3c0,0,0,0,0,0.1c0,1.5-1.8,2.3-2.8,1.2
			l-7.1-7c-0.6-0.6-0.6-1.7,0-2.4l5.9-5.8l19.2-19C35.5-0.6,37.3,0.2,37.3,1.7z"/>
		
			<linearGradient id="SVGID_00000118388717238294682330000009892313533291941795_" gradientUnits="userSpaceOnUse" x1="22.6093" y1="42.1995" x2="22.6093" y2="42.1995" gradientTransform="matrix(1 2.558343e-03 2.558343e-03 -1 -1.0373 69.1217)">
			<stop  offset="0.362" style="stop-color:#F279A0"/>
			<stop  offset="0.7201" style="stop-color:#EE3C8C"/>
		</linearGradient>
		
			<path style="fill:url(#SVGID_00000118388717238294682330000009892313533291941795_);stroke:#231F20;stroke-width:0.104;stroke-miterlimit:10;" d="
			M21.7,27"/>
		
			<linearGradient id="SVGID_00000067939181293051533930000008141497191103588231_" gradientUnits="userSpaceOnUse" x1="23.1878" y1="42.811" x2="23.1878" y2="42.811" gradientTransform="matrix(1 2.558343e-03 2.558343e-03 -1 -1.0373 69.1217)">
			<stop  offset="0.362" style="stop-color:#F279A0"/>
			<stop  offset="0.7201" style="stop-color:#EE3C8C"/>
		</linearGradient>
		
			<path style="fill:url(#SVGID_00000067939181293051533930000008141497191103588231_);stroke:#231F20;stroke-width:0.104;stroke-miterlimit:10;" d="
			M22.3,26.4"/>
	</g>
	<g>
		
			<linearGradient id="SVGID_00000129201627891981526690000008128984919999714495_" gradientUnits="userSpaceOnUse" x1="5.005" y1="67.8921" x2="5.005" y2="13.3294" gradientTransform="matrix(1 0 0 -1 0 68)">
			<stop  offset="0" style="stop-color:#DD5E89"/>
			<stop  offset="1" style="stop-color:#F6BB96"/>
		</linearGradient>
		<path style="fill:url(#SVGID_00000129201627891981526690000008128984919999714495_);" d="M0,1.6v24.8C0,27.3,0.7,28,1.5,28h7
			c0.8,0,1.5-0.7,1.5-1.5V8.6c0-0.4-0.2-0.8-0.4-1.1l-7-7C1.6-0.4,0,0.3,0,1.6z"/>
		<g>
			
				<linearGradient id="SVGID_00000112602911161240505910000000069597591723981465_" gradientUnits="userSpaceOnUse" x1="-531.0049" y1="783.6725" x2="-531.0049" y2="728.3043" gradientTransform="matrix(-1 0 0 1 -526.0049 -730.4008)">
				<stop  offset="0" style="stop-color:#DD5E89"/>
				<stop  offset="1" style="stop-color:#F6BB96"/>
			</linearGradient>
			<path style="fill:url(#SVGID_00000112602911161240505910000000069597591723981465_);" d="M10,52V26.2c0-0.7-0.5-1.2-1.2-1.2H1.5
				C0.7,25,0,25.7,0,26.5v18c0,0.3,0.1,0.6,0.4,0.9l7.6,7.6C8.7,53.7,10,53.1,10,52z"/>
		</g>
	</g>
</g>
</svg>
