<?xml version="1.0" encoding="utf-8"?>
<!-- Generator: Adobe Illustrator 25.3.1, SVG Export Plug-In . SVG Version: 6.00 Build 0)  -->
<svg version="1.1" id="Layer_1" xmlns="http://www.w3.org/2000/svg" xmlns:xlink="http://www.w3.org/1999/xlink" x="0px" y="0px"
	 viewBox="0 0 149.89 163.84" style="enable-background:new 0 0 149.89 163.84;" xml:space="preserve">
<style type="text/css">
	.st0{fill:url(#SVGID_1_);}
	.st1{fill:url(#SVGID_2_);}
	.st2{fill:url(#SVGID_3_);}
	.st3{fill:url(#SVGID_4_);}
	.st4{fill:#007ED8;}
</style>
<g>
	<g>
		<linearGradient id="SVGID_1_" gradientUnits="userSpaceOnUse" x1="22.8885" y1="68.8384" x2="61.3947" y2="68.8384">
			<stop  offset="5.327789e-09" style="stop-color:#05FFFF"/>
			<stop  offset="1" style="stop-color:#0072D4"/>
		</linearGradient>
		<path class="st0" d="M42.82,136.45h-1.35c-10.26,0-18.58-8.32-18.58-18.58V19.81c0-10.26,8.32-18.58,18.58-18.58h1.35
			c10.26,0,18.58,8.32,18.58,18.58v98.06C61.39,128.13,53.08,136.45,42.82,136.45z"/>
	</g>
	<g>
		<linearGradient id="SVGID_2_" gradientUnits="userSpaceOnUse" x1="61.5107" y1="107.0512" x2="122.8885" y2="107.0512">
			<stop  offset="5.327789e-09" style="stop-color:#05FFFF"/>
			<stop  offset="1" style="stop-color:#0072D4"/>
		</linearGradient>
		<path class="st1" d="M117.25,130.95L117.25,130.95c-7.52,7.17-19.71,7.17-27.23,0l-22.87-21.82c-7.52-7.17-7.52-18.81,0-25.98l0,0
			c7.52-7.17,19.71-7.17,27.23,0l22.87,21.82C124.77,112.15,124.77,123.78,117.25,130.95z"/>
	</g>
	<g>
		<linearGradient id="SVGID_3_" gradientUnits="userSpaceOnUse" x1="61.5107" y1="48.9971" x2="122.8885" y2="48.9971">
			<stop  offset="5.327789e-09" style="stop-color:#05FFFF"/>
			<stop  offset="1" style="stop-color:#0072D4"/>
		</linearGradient>
		<path class="st2" d="M67.15,72.9L67.15,72.9c-7.52-7.17-7.52-18.81,0-25.98l22.87-21.82c7.52-7.17,19.71-7.17,27.23,0l0,0
			c7.52,7.17,7.52,18.81,0,25.98L94.38,72.9C86.86,80.07,74.67,80.07,67.15,72.9z"/>
		<linearGradient id="SVGID_4_" gradientUnits="userSpaceOnUse" x1="61.5107" y1="48.9971" x2="122.8885" y2="48.9971">
			<stop  offset="5.327789e-09" style="stop-color:#05FFFF"/>
			<stop  offset="1" style="stop-color:#0072D4"/>
		</linearGradient>
		<path class="st3" d="M103.64,20.71c4.88,0,9.47,1.81,12.92,5.1c3.44,3.28,5.33,7.64,5.33,12.27s-1.89,8.99-5.33,12.27L93.69,72.18
			c-3.45,3.29-8.04,5.1-12.92,5.1c-4.88,0-9.47-1.81-12.92-5.1c-3.44-3.28-5.33-7.64-5.33-12.27s1.89-8.99,5.33-12.27l22.87-21.82
			C94.16,22.53,98.75,20.71,103.64,20.71 M103.64,19.71c-4.93,0-9.85,1.79-13.61,5.38L67.15,46.92c-7.52,7.17-7.52,18.81,0,25.98
			l0,0c3.76,3.59,8.69,5.38,13.61,5.38c4.93,0,9.85-1.79,13.61-5.38l22.87-21.82c7.52-7.17,7.52-18.81,0-25.98l0,0
			C113.49,21.51,108.56,19.71,103.64,19.71L103.64,19.71z"/>
	</g>
</g>
<g>
	<path class="st4" d="M-0.1,147.97H2.1v7.21h0.07c0.45-0.58,0.91-1.11,1.34-1.6l5.19-5.62h2.72l-6.15,6.35l6.63,8.61H9.3l-5.59-7.35
		l-1.61,1.64v5.7H-0.1V147.97z"/>
	<path class="st4" d="M20.65,162.93l-0.18-1.35H20.4c-0.68,0.84-1.99,1.6-3.73,1.6c-2.47,0-3.73-1.53-3.73-3.08
		c0-2.6,2.62-4.02,7.33-3.99v-0.22c0-0.89-0.28-2.49-2.77-2.49c-1.13,0-2.32,0.31-3.18,0.8l-0.5-1.29c1.01-0.58,2.47-0.95,4.01-0.95
		c3.73,0,4.64,2.24,4.64,4.39v4.02c0,0.93,0.05,1.84,0.2,2.57H20.65z M20.33,157.44c-2.42-0.04-5.17,0.33-5.17,2.42
		c0,1.27,0.96,1.87,2.09,1.87c1.59,0,2.59-0.89,2.95-1.8c0.08-0.2,0.13-0.42,0.13-0.62V157.44z"/>
	<path class="st4" d="M28.63,149.1v3.08h3.17v1.49h-3.17v5.79c0,1.33,0.43,2.09,1.66,2.09c0.58,0,1.01-0.07,1.29-0.13l0.1,1.46
		c-0.43,0.16-1.11,0.27-1.96,0.27c-1.03,0-1.87-0.29-2.39-0.82c-0.63-0.58-0.86-1.53-0.86-2.8v-5.86h-1.89v-1.49h1.89v-2.57
		L28.63,149.1z"/>
	<path class="st4" d="M34.3,147.17h2.22v6.7h0.05c0.35-0.55,0.91-1.04,1.59-1.38c0.65-0.33,1.44-0.56,2.27-0.56
		c1.64,0,4.26,0.89,4.26,4.59v6.39h-2.22v-6.17c0-1.73-0.73-3.2-2.82-3.2c-1.44,0-2.57,0.89-2.97,1.95
		c-0.13,0.27-0.15,0.55-0.15,0.93v6.48H34.3V147.17z"/>
	<path class="st4" d="M49.53,157.91c0.05,2.64,1.96,3.73,4.18,3.73c1.59,0,2.54-0.24,3.38-0.55l0.38,1.4
		c-0.78,0.31-2.12,0.67-4.06,0.67c-3.75,0-6-2.18-6-5.42c0-3.24,2.17-5.79,5.72-5.79c3.98,0,5.04,3.08,5.04,5.06
		c0,0.4-0.05,0.71-0.08,0.91H49.53z M56.04,156.51c0.02-1.24-0.58-3.17-3.07-3.17c-2.24,0-3.23,1.82-3.4,3.17H56.04z"/>
	<path class="st4" d="M60.93,155.54c0-1.26-0.02-2.35-0.1-3.35h1.94l0.07,2.11h0.1c0.56-1.44,1.89-2.35,3.38-2.35
		c0.25,0,0.43,0.02,0.63,0.07v1.84c-0.23-0.04-0.45-0.07-0.76-0.07c-1.56,0-2.67,1.04-2.97,2.51c-0.05,0.27-0.1,0.58-0.1,0.91v5.73
		h-2.19V155.54z"/>
	<path class="st4" d="M71.75,149.17c0.02,0.67-0.53,1.2-1.41,1.2c-0.78,0-1.34-0.53-1.34-1.2c0-0.69,0.58-1.22,1.39-1.22
		C71.22,147.95,71.75,148.48,71.75,149.17z M69.28,162.93v-10.74h2.22v10.74H69.28z"/>
	<path class="st4" d="M75.18,155.09c0-1.11-0.02-2.02-0.1-2.91h1.97l0.13,1.78h0.05c0.6-1.02,2.02-2.02,4.03-2.02
		c1.69,0,4.31,0.89,4.31,4.57v6.41h-2.22v-6.19c0-1.73-0.73-3.17-2.82-3.17c-1.46,0-2.59,0.91-2.97,2c-0.1,0.24-0.15,0.58-0.15,0.91
		v6.46h-2.22V155.09z"/>
	<path class="st4" d="M90.41,157.91c0.05,2.64,1.97,3.73,4.18,3.73c1.59,0,2.54-0.24,3.38-0.55l0.38,1.4
		c-0.78,0.31-2.12,0.67-4.06,0.67c-3.75,0-6-2.18-6-5.42c0-3.24,2.17-5.79,5.72-5.79c3.98,0,5.04,3.08,5.04,5.06
		c0,0.4-0.05,0.71-0.07,0.91H90.41z M96.92,156.51c0.02-1.24-0.58-3.17-3.08-3.17c-2.24,0-3.23,1.82-3.4,3.17H96.92z"/>
	<path class="st4" d="M107.24,148.14c1.06-0.15,2.44-0.29,4.21-0.29c2.17,0,3.75,0.44,4.76,1.24c0.93,0.71,1.49,1.8,1.49,3.13
		c0,1.35-0.45,2.42-1.31,3.2c-1.16,1.09-3.05,1.64-5.19,1.64c-0.65,0-1.26-0.02-1.76-0.13v5.99h-2.19V148.14z M109.43,155.36
		c0.48,0.11,1.08,0.16,1.81,0.16c2.65,0,4.26-1.13,4.26-3.2c0-1.98-1.59-2.93-4.01-2.93c-0.96,0-1.69,0.07-2.07,0.16V155.36z"/>
	<path class="st4" d="M122.65,149.17c0.02,0.67-0.53,1.2-1.41,1.2c-0.78,0-1.34-0.53-1.34-1.2c0-0.69,0.58-1.22,1.39-1.22
		C122.12,147.95,122.65,148.48,122.65,149.17z M120.17,162.93v-10.74h2.22v10.74H120.17z"/>
	<path class="st4" d="M128.75,149.1v3.08h3.17v1.49h-3.17v5.79c0,1.33,0.43,2.09,1.66,2.09c0.58,0,1.01-0.07,1.29-0.13l0.1,1.46
		c-0.43,0.16-1.11,0.27-1.96,0.27c-1.03,0-1.87-0.29-2.39-0.82c-0.63-0.58-0.86-1.53-0.86-2.8v-5.86h-1.89v-1.49h1.89v-2.57
		L128.75,149.1z"/>
	<path class="st4" d="M137.1,149.1v3.08h3.17v1.49h-3.17v5.79c0,1.33,0.43,2.09,1.66,2.09c0.58,0,1.01-0.07,1.29-0.13l0.1,1.46
		c-0.43,0.16-1.11,0.27-1.97,0.27c-1.03,0-1.86-0.29-2.39-0.82c-0.63-0.58-0.86-1.53-0.86-2.8v-5.86h-1.89v-1.49h1.89v-2.57
		L137.1,149.1z"/>
	<path class="st4" d="M142.47,160.93c0.66,0.38,1.81,0.78,2.92,0.78c1.61,0,2.37-0.71,2.37-1.6c0-0.93-0.63-1.44-2.27-1.97
		c-2.19-0.69-3.23-1.75-3.23-3.04c0-1.73,1.59-3.15,4.21-3.15c1.23,0,2.32,0.31,3,0.67l-0.56,1.42c-0.48-0.27-1.36-0.62-2.5-0.62
		c-1.31,0-2.04,0.67-2.04,1.46c0,0.89,0.73,1.29,2.32,1.82c2.12,0.71,3.2,1.64,3.2,3.24c0,1.89-1.66,3.22-4.56,3.22
		c-1.34,0-2.57-0.29-3.43-0.73L142.47,160.93z"/>
</g>
</svg>
