<?xml version="1.0" encoding="utf-8"?>
<!-- Generator: Adobe Illustrator 25.3.1, SVG Export Plug-In . SVG Version: 6.00 Build 0)  -->
<svg version="1.1" id="Layer_1" xmlns="http://www.w3.org/2000/svg" xmlns:xlink="http://www.w3.org/1999/xlink" x="0px" y="0px"
	 viewBox="0 0 100 150" style="enable-background:new 0 0 100 150;" xml:space="preserve">
<style type="text/css">
	.st0{fill:url(#SVGID_1_);}
	.st1{fill:url(#SVGID_2_);}
	.st2{fill:url(#SVGID_3_);}
	.st3{fill:url(#SVGID_4_);}
	.st4{fill:#007ED8;}
</style>
<g>
	<g>
		<g>
			<linearGradient id="SVGID_1_" gradientUnits="userSpaceOnUse" x1="0.2502" y1="67.4554" x2="38.7564" y2="67.4554">
				<stop  offset="5.327789e-09" style="stop-color:#05FFFF"/>
				<stop  offset="1" style="stop-color:#0072D4"/>
			</linearGradient>
			<path class="st0" d="M20.18,135.06h-1.35c-10.26,0-18.58-8.32-18.58-18.58l0-98.06c0-10.26,8.32-18.58,18.58-18.58h1.35
				c10.26,0,18.58,8.32,18.58,18.58v98.06C38.76,126.74,30.44,135.06,20.18,135.06z"/>
		</g>
		<g>
			<linearGradient id="SVGID_2_" gradientUnits="userSpaceOnUse" x1="38.8724" y1="105.6682" x2="100.2502" y2="105.6682">
				<stop  offset="5.327789e-09" style="stop-color:#05FFFF"/>
				<stop  offset="1" style="stop-color:#0072D4"/>
			</linearGradient>
			<path class="st1" d="M94.61,129.57L94.61,129.57c-7.52,7.17-19.71,7.17-27.23,0l-22.87-21.82c-7.52-7.17-7.52-18.81,0-25.98l0,0
				c7.52-7.17,19.71-7.17,27.23,0l22.87,21.82C102.13,110.76,102.13,122.4,94.61,129.57z"/>
		</g>
		<g>
			<linearGradient id="SVGID_3_" gradientUnits="userSpaceOnUse" x1="38.8724" y1="47.6142" x2="100.2502" y2="47.6142">
				<stop  offset="5.327789e-09" style="stop-color:#05FFFF"/>
				<stop  offset="1" style="stop-color:#0072D4"/>
			</linearGradient>
			<path class="st2" d="M44.51,71.52L44.51,71.52c-7.52-7.17-7.52-18.81,0-25.98l22.87-21.82c7.52-7.17,19.71-7.17,27.23,0l0,0
				c7.52,7.17,7.52,18.81,0,25.98L71.74,71.52C64.22,78.69,52.03,78.69,44.51,71.52z"/>
			<linearGradient id="SVGID_4_" gradientUnits="userSpaceOnUse" x1="38.8724" y1="47.6142" x2="100.2502" y2="47.6142">
				<stop  offset="5.327789e-09" style="stop-color:#05FFFF"/>
				<stop  offset="1" style="stop-color:#0072D4"/>
			</linearGradient>
			<path class="st3" d="M81,19.33c4.88,0,9.47,1.81,12.92,5.1c3.44,3.28,5.33,7.64,5.33,12.27s-1.89,8.99-5.33,12.27L71.05,70.79
				c-3.45,3.29-8.04,5.1-12.92,5.1c-4.88,0-9.47-1.81-12.92-5.1c-3.44-3.28-5.33-7.64-5.33-12.27s1.89-8.99,5.33-12.27l22.87-21.82
				C71.52,21.14,76.11,19.33,81,19.33 M81,18.33c-4.93,0-9.85,1.79-13.61,5.38L44.51,45.54c-7.52,7.17-7.52,18.81,0,25.98l0,0
				c3.76,3.59,8.69,5.38,13.61,5.38c4.93,0,9.85-1.79,13.61-5.38l22.87-21.82c7.52-7.17,7.52-18.81,0-25.98l0,0
				C90.85,20.12,85.92,18.33,81,18.33L81,18.33z"/>
		</g>
	</g>
	<g>
		<path class="st4" d="M25.53,143.81h0.8v2.86h0.03c0.17-0.23,0.33-0.44,0.49-0.63l1.9-2.23h1l-2.25,2.52l2.43,3.42h-0.95
			l-2.05-2.92l-0.59,0.65v2.26h-0.8V143.81z"/>
		<path class="st4" d="M33.13,149.75l-0.06-0.54h-0.03c-0.25,0.33-0.73,0.63-1.37,0.63c-0.91,0-1.37-0.61-1.37-1.22
			c0-1.03,0.96-1.59,2.69-1.59v-0.09c0-0.35-0.1-0.99-1.02-0.99c-0.42,0-0.85,0.12-1.16,0.32l-0.18-0.51
			c0.37-0.23,0.9-0.38,1.47-0.38c1.37,0,1.7,0.89,1.7,1.74v1.59c0,0.37,0.02,0.73,0.07,1.02H33.13z M33.01,147.57
			c-0.89-0.02-1.89,0.13-1.89,0.96c0,0.5,0.35,0.74,0.77,0.74c0.58,0,0.95-0.35,1.08-0.71c0.03-0.08,0.05-0.17,0.05-0.25V147.57z"/>
		<path class="st4" d="M36.06,144.26v1.22h1.16v0.59h-1.16v2.3c0,0.53,0.16,0.83,0.61,0.83c0.21,0,0.37-0.03,0.47-0.05l0.04,0.58
			c-0.16,0.06-0.41,0.11-0.72,0.11c-0.38,0-0.68-0.11-0.88-0.33c-0.23-0.23-0.31-0.61-0.31-1.11v-2.33h-0.69v-0.59h0.69v-1.02
			L36.06,144.26z"/>
		<path class="st4" d="M38.14,143.5h0.81v2.66h0.02c0.13-0.22,0.33-0.41,0.58-0.55c0.24-0.13,0.53-0.22,0.83-0.22
			c0.6,0,1.56,0.35,1.56,1.82v2.54h-0.81v-2.45c0-0.69-0.27-1.27-1.03-1.27c-0.53,0-0.94,0.35-1.09,0.78
			c-0.05,0.11-0.06,0.22-0.06,0.37v2.57h-0.81V143.5z"/>
		<path class="st4" d="M43.72,147.76c0.02,1.05,0.72,1.48,1.53,1.48c0.58,0,0.93-0.1,1.24-0.22l0.14,0.56
			c-0.29,0.12-0.78,0.26-1.49,0.26c-1.38,0-2.2-0.86-2.2-2.15c0-1.29,0.79-2.3,2.1-2.3c1.46,0,1.85,1.22,1.85,2.01
			c0,0.16-0.02,0.28-0.03,0.36H43.72z M46.1,147.2c0.01-0.49-0.21-1.26-1.13-1.26c-0.82,0-1.18,0.72-1.25,1.26H46.1z"/>
		<path class="st4" d="M47.89,146.82c0-0.5-0.01-0.93-0.04-1.33h0.71l0.03,0.84h0.04c0.2-0.57,0.69-0.93,1.24-0.93
			c0.09,0,0.16,0.01,0.23,0.03v0.73c-0.08-0.02-0.17-0.03-0.28-0.03c-0.57,0-0.98,0.41-1.09,1c-0.02,0.11-0.04,0.23-0.04,0.36v2.27
			h-0.8V146.82z"/>
		<path class="st4" d="M51.86,144.29c0.01,0.26-0.19,0.48-0.52,0.48c-0.29,0-0.49-0.21-0.49-0.48c0-0.27,0.21-0.48,0.51-0.48
			C51.66,143.8,51.86,144.01,51.86,144.29z M50.95,149.75v-4.26h0.81v4.26H50.95z"/>
		<path class="st4" d="M53.11,146.64c0-0.44-0.01-0.8-0.04-1.15h0.72l0.05,0.7h0.02c0.22-0.41,0.74-0.8,1.48-0.8
			c0.62,0,1.58,0.35,1.58,1.82v2.55h-0.81v-2.46c0-0.69-0.27-1.26-1.03-1.26c-0.54,0-0.95,0.36-1.09,0.79
			c-0.04,0.1-0.06,0.23-0.06,0.36v2.56h-0.81V146.64z"/>
		<path class="st4" d="M58.7,147.76c0.02,1.05,0.72,1.48,1.53,1.48c0.58,0,0.93-0.1,1.24-0.22l0.14,0.56
			c-0.29,0.12-0.78,0.26-1.49,0.26c-1.38,0-2.2-0.86-2.2-2.15c0-1.29,0.79-2.3,2.1-2.3c1.46,0,1.85,1.22,1.85,2.01
			c0,0.16-0.02,0.28-0.03,0.36H58.7z M61.08,147.2c0.01-0.49-0.21-1.26-1.13-1.26c-0.82,0-1.18,0.72-1.25,1.26H61.08z"/>
		<path class="st4" d="M64.86,143.88c0.39-0.06,0.9-0.11,1.54-0.11c0.79,0,1.38,0.18,1.75,0.49c0.34,0.28,0.54,0.71,0.54,1.24
			c0,0.54-0.17,0.96-0.48,1.27c-0.43,0.43-1.12,0.65-1.9,0.65c-0.24,0-0.46-0.01-0.65-0.05v2.38h-0.8V143.88z M65.66,146.75
			c0.18,0.04,0.4,0.06,0.66,0.06c0.97,0,1.56-0.45,1.56-1.27c0-0.78-0.58-1.16-1.47-1.16c-0.35,0-0.62,0.03-0.76,0.06V146.75z"/>
		<path class="st4" d="M70.51,144.29c0.01,0.26-0.19,0.48-0.52,0.48c-0.29,0-0.49-0.21-0.49-0.48c0-0.27,0.21-0.48,0.51-0.48
			C70.31,143.8,70.51,144.01,70.51,144.29z M69.6,149.75v-4.26h0.81v4.26H69.6z"/>
		<path class="st4" d="M72.74,144.26v1.22h1.16v0.59h-1.16v2.3c0,0.53,0.16,0.83,0.61,0.83c0.21,0,0.37-0.03,0.47-0.05l0.04,0.58
			c-0.16,0.06-0.41,0.11-0.72,0.11c-0.38,0-0.68-0.11-0.88-0.33c-0.23-0.23-0.31-0.61-0.31-1.11v-2.33h-0.69v-0.59h0.69v-1.02
			L72.74,144.26z"/>
		<path class="st4" d="M75.8,144.26v1.22h1.16v0.59H75.8v2.3c0,0.53,0.16,0.83,0.61,0.83c0.21,0,0.37-0.03,0.47-0.05l0.04,0.58
			c-0.16,0.06-0.41,0.11-0.72,0.11c-0.38,0-0.68-0.11-0.88-0.33c-0.23-0.23-0.31-0.61-0.31-1.11v-2.33h-0.69v-0.59h0.69v-1.02
			L75.8,144.26z"/>
		<path class="st4" d="M77.77,148.96c0.24,0.15,0.66,0.31,1.07,0.31c0.59,0,0.87-0.28,0.87-0.63c0-0.37-0.23-0.57-0.83-0.78
			c-0.8-0.27-1.18-0.7-1.18-1.21c0-0.69,0.58-1.25,1.54-1.25c0.45,0,0.85,0.12,1.1,0.26l-0.2,0.56c-0.18-0.11-0.5-0.25-0.91-0.25
			c-0.48,0-0.75,0.26-0.75,0.58c0,0.35,0.27,0.51,0.85,0.72c0.78,0.28,1.17,0.65,1.17,1.29c0,0.75-0.61,1.28-1.67,1.28
			c-0.49,0-0.94-0.11-1.26-0.29L77.77,148.96z"/>
	</g>
</g>
</svg>
