<?xml version="1.0" encoding="utf-8"?>
<!-- Generator: Adobe Illustrator 25.3.1, SVG Export Plug-In . SVG Version: 6.00 Build 0)  -->
<svg version="1.1" id="Layer_1" xmlns="http://www.w3.org/2000/svg" xmlns:xlink="http://www.w3.org/1999/xlink" x="0px" y="0px"
	 viewBox="0 0 188.89 65.84" style="enable-background:new 0 0 188.89 65.84;" xml:space="preserve">
<style type="text/css">
	.st0{fill:url(#SVGID_1_);}
	.st1{fill:url(#SVGID_2_);}
	.st2{fill:url(#SVGID_3_);}
	.st3{fill:url(#SVGID_4_);}
	.st4{fill:#007ED8;}
</style>
<g>
	<linearGradient id="SVGID_1_" gradientUnits="userSpaceOnUse" x1="0.2634" y1="33.3024" x2="19.5165" y2="33.3024">
		<stop  offset="5.327789e-09" style="stop-color:#05FFFF"/>
		<stop  offset="1" style="stop-color:#0072D4"/>
	</linearGradient>
	<path class="st0" d="M9.89,65.8L9.89,65.8c-5.32,0-9.63-4.31-9.63-9.63V10.43c0-5.32,4.31-9.63,9.63-9.63h0
		c5.32,0,9.63,4.31,9.63,9.63v45.75C19.52,61.49,15.21,65.8,9.89,65.8z"/>
</g>
<g>
	<linearGradient id="SVGID_2_" gradientUnits="userSpaceOnUse" x1="19.5745" y1="51.672" x2="50.2634" y2="51.672">
		<stop  offset="5.327789e-09" style="stop-color:#05FFFF"/>
		<stop  offset="1" style="stop-color:#0072D4"/>
	</linearGradient>
	<path class="st1" d="M47.44,63.16L47.44,63.16c-3.76,3.45-9.85,3.45-13.61,0L22.39,52.67c-3.76-3.45-3.76-9.04,0-12.49l0,0
		c3.76-3.45,9.85-3.45,13.61,0l11.44,10.49C51.2,54.12,51.2,59.71,47.44,63.16z"/>
</g>
<g>
	<linearGradient id="SVGID_3_" gradientUnits="userSpaceOnUse" x1="19.5745" y1="23.7644" x2="50.2634" y2="23.7644">
		<stop  offset="5.327789e-09" style="stop-color:#05FFFF"/>
		<stop  offset="1" style="stop-color:#0072D4"/>
	</linearGradient>
	<path class="st2" d="M22.39,35.25L22.39,35.25c-3.76-3.45-3.76-9.04,0-12.49l11.44-10.49c3.76-3.45,9.85-3.45,13.61,0l0,0
		c3.76,3.45,3.76,9.04,0,12.49L36.01,35.25C32.25,38.7,26.15,38.7,22.39,35.25z"/>
	<linearGradient id="SVGID_4_" gradientUnits="userSpaceOnUse" x1="19.5745" y1="23.7644" x2="50.2634" y2="23.7644">
		<stop  offset="5.327789e-09" style="stop-color:#05FFFF"/>
		<stop  offset="1" style="stop-color:#0072D4"/>
	</linearGradient>
	<path class="st3" d="M40.64,10.69c2.32,0,4.5,0.83,6.13,2.32c1.61,1.48,2.5,3.43,2.5,5.51s-0.89,4.03-2.5,5.51L35.33,34.52
		c-1.63,1.5-3.81,2.32-6.13,2.32s-4.5-0.83-6.13-2.32c-1.61-1.48-2.5-3.43-2.5-5.51s0.89-4.03,2.5-5.51l11.44-10.49
		C36.14,11.51,38.32,10.69,40.64,10.69 M40.64,9.69c-2.46,0-4.93,0.86-6.81,2.59L22.39,22.77c-3.76,3.45-3.76,9.04,0,12.49l0,0
		c1.88,1.72,4.34,2.59,6.81,2.59s4.93-0.86,6.81-2.59l11.44-10.49c3.76-3.45,3.76-9.04,0-12.49h0C45.56,10.55,43.1,9.69,40.64,9.69
		L40.64,9.69z"/>
</g>
<path class="st4" d="M60.65,43.86l-0.18-1.69H60.4c-0.68,1.05-1.99,2-3.73,2c-2.47,0-3.73-1.92-3.73-3.86
	c0-3.25,2.62-5.02,7.33-4.99v-0.28c0-1.11-0.28-3.11-2.77-3.11c-1.13,0-2.32,0.39-3.18,1l-0.5-1.61c1.01-0.72,2.47-1.19,4.01-1.19
	c3.73,0,4.64,2.8,4.64,5.49v5.02c0,1.16,0.05,2.3,0.2,3.22H60.65z M60.33,37.01c-2.42-0.05-5.17,0.42-5.17,3.02
	c0,1.58,0.96,2.33,2.09,2.33c1.59,0,2.59-1.11,2.95-2.25c0.08-0.25,0.13-0.53,0.13-0.78V37.01z"/>
<path class="st4" d="M68.63,26.58v3.86h3.17v1.86h-3.17v7.24c0,1.66,0.43,2.61,1.66,2.61c0.58,0,1.01-0.08,1.29-0.17l0.1,1.83
	c-0.43,0.19-1.11,0.33-1.96,0.33c-1.03,0-1.87-0.36-2.39-1.03c-0.63-0.72-0.86-1.91-0.86-3.49V32.3h-1.89v-1.86h1.89v-3.22
	L68.63,26.58z"/>
<path class="st4" d="M74.3,24.17h2.22v8.38h0.05c0.35-0.69,0.91-1.3,1.59-1.72c0.65-0.42,1.44-0.69,2.27-0.69
	c1.64,0,4.26,1.11,4.26,5.74v7.99h-2.22v-7.71c0-2.16-0.73-3.99-2.82-3.99c-1.44,0-2.57,1.11-2.97,2.44
	c-0.13,0.33-0.15,0.69-0.15,1.16v8.1H74.3V24.17z"/>
<path class="st4" d="M89.53,37.59c0.05,3.3,1.96,4.66,4.18,4.66c1.59,0,2.54-0.3,3.38-0.69l0.38,1.75
	c-0.78,0.39-2.12,0.83-4.06,0.83c-3.75,0-6-2.72-6-6.77c0-4.05,2.17-7.24,5.72-7.24c3.98,0,5.04,3.86,5.04,6.32
	c0,0.5-0.05,0.89-0.08,1.14H89.53z M96.04,35.85c0.02-1.55-0.58-3.97-3.07-3.97c-2.24,0-3.23,2.28-3.4,3.97H96.04z"/>
<path class="st4" d="M100.93,34.63c0-1.58-0.02-2.94-0.1-4.19h1.94l0.07,2.64h0.1c0.56-1.8,1.89-2.94,3.38-2.94
	c0.25,0,0.43,0.03,0.63,0.08v2.3c-0.23-0.06-0.45-0.08-0.76-0.08c-1.56,0-2.67,1.3-2.97,3.13c-0.05,0.33-0.1,0.72-0.1,1.14v7.16
	h-2.19V34.63z"/>
<path class="st4" d="M111.75,26.67c0.02,0.83-0.53,1.5-1.41,1.5c-0.78,0-1.34-0.67-1.34-1.5c0-0.86,0.58-1.53,1.39-1.53
	C111.22,25.14,111.75,25.81,111.75,26.67z M109.28,43.86V30.44h2.22v13.43H109.28z"/>
<path class="st4" d="M115.18,34.07c0-1.39-0.02-2.52-0.1-3.63h1.97l0.13,2.22h0.05c0.6-1.28,2.02-2.52,4.03-2.52
	c1.69,0,4.31,1.11,4.31,5.72v8.02h-2.22v-7.74c0-2.16-0.73-3.97-2.82-3.97c-1.46,0-2.59,1.14-2.97,2.5
	c-0.1,0.31-0.15,0.72-0.15,1.14v8.07h-2.22V34.07z"/>
<path class="st4" d="M130.41,37.59c0.05,3.3,1.97,4.66,4.18,4.66c1.59,0,2.54-0.3,3.38-0.69l0.38,1.75
	c-0.78,0.39-2.12,0.83-4.06,0.83c-3.75,0-6-2.72-6-6.77c0-4.05,2.17-7.24,5.72-7.24c3.98,0,5.04,3.86,5.04,6.32
	c0,0.5-0.05,0.89-0.07,1.14H130.41z M136.92,35.85c0.02-1.55-0.58-3.97-3.08-3.97c-2.24,0-3.23,2.28-3.4,3.97H136.92z"/>
<path class="st4" d="M147.24,25.39c1.06-0.19,2.44-0.36,4.21-0.36c2.17,0,3.75,0.55,4.76,1.55c0.93,0.89,1.49,2.25,1.49,3.91
	c0,1.69-0.45,3.02-1.31,3.99c-1.16,1.36-3.05,2.05-5.19,2.05c-0.65,0-1.26-0.03-1.76-0.17v7.49h-2.19V25.39z M149.43,34.41
	c0.48,0.14,1.08,0.19,1.81,0.19c2.65,0,4.26-1.42,4.26-3.99c0-2.47-1.59-3.66-4.01-3.66c-0.96,0-1.69,0.08-2.07,0.19V34.41z"/>
<path class="st4" d="M162.65,26.67c0.02,0.83-0.53,1.5-1.41,1.5c-0.78,0-1.34-0.67-1.34-1.5c0-0.86,0.58-1.53,1.39-1.53
	C162.12,25.14,162.65,25.81,162.65,26.67z M160.17,43.86V30.44h2.22v13.43H160.17z"/>
<path class="st4" d="M168.75,26.58v3.86h3.17v1.86h-3.17v7.24c0,1.66,0.43,2.61,1.66,2.61c0.58,0,1.01-0.08,1.29-0.17l0.1,1.83
	c-0.43,0.19-1.11,0.33-1.96,0.33c-1.03,0-1.87-0.36-2.39-1.03c-0.63-0.72-0.86-1.91-0.86-3.49V32.3h-1.89v-1.86h1.89v-3.22
	L168.75,26.58z"/>
<path class="st4" d="M177.1,26.58v3.86h3.17v1.86h-3.17v7.24c0,1.66,0.43,2.61,1.66,2.61c0.58,0,1.01-0.08,1.29-0.17l0.1,1.83
	c-0.43,0.19-1.11,0.33-1.97,0.33c-1.03,0-1.86-0.36-2.39-1.03c-0.63-0.72-0.86-1.91-0.86-3.49V32.3h-1.89v-1.86h1.89v-3.22
	L177.1,26.58z"/>
<path class="st4" d="M182.47,41.37c0.66,0.47,1.81,0.97,2.92,0.97c1.61,0,2.37-0.89,2.37-2c0-1.16-0.63-1.8-2.27-2.47
	c-2.19-0.86-3.23-2.19-3.23-3.8c0-2.16,1.59-3.94,4.21-3.94c1.23,0,2.32,0.39,3,0.83l-0.56,1.78c-0.48-0.33-1.36-0.78-2.5-0.78
	c-1.31,0-2.04,0.83-2.04,1.83c0,1.11,0.73,1.61,2.32,2.28c2.12,0.89,3.2,2.05,3.2,4.05c0,2.36-1.66,4.02-4.56,4.02
	c-1.34,0-2.57-0.36-3.43-0.92L182.47,41.37z"/>
</svg>
